  0
SECTION
  2
HEADER
  9
$ACADVER
  1
AC1014
  9
$HANDSEED
  5
FFFF
  9
$MEASUREMENT
 70
     1
  0
ENDSEC
  0
SECTION
  2
TABLES
  0
TABLE
  2
VPORT
  5
8
330
0
100
AcDbSymbolTable
 70
     4
  0
VPORT
  5
2E
330
8
100
AcDbSymbolTableRecord
100
AcDbViewportTableRecord
  2
*ACTIVE
 70
     0
 10
0.0
 20
0.0
 11
1.0
 21
1.0
 12
210.0
 22
148.5
 13
0.0
 23
0.0
 14
10.0
 24
10.0
 15
10.0
 25
10.0
 16
0.0
 26
0.0
 36
1.0
 17
0.0
 27
0.0
 37
0.0
 40
341.0
 41
1.24
 42
50.0
 43
0.0
 44
0.0
 50
0.0
 51
0.0
 71
     0
 72
   100
 73
     1
 74
     3
 75
     0
 76
     0
 77
     0
 78
     0
  0
ENDTAB
  0
TABLE
  2
LTYPE
  5
5
330
0
100
AcDbSymbolTable
 70
     1
  0
LTYPE
  5
14
330
5
100
AcDbSymbolTableRecord
100
AcDbLinetypeTableRecord
  2
BYBLOCK
 70
     0
  3

 72
    65
 73
     0
 40
0.0
  0
LTYPE
  5
15
330
5
100
AcDbSymbolTableRecord
100
AcDbLinetypeTableRecord
  2
BYLAYER
 70
     0
  3

 72
    65
 73
     0
 40
0.0
  0
LTYPE
  5
16
330
5
100
AcDbSymbolTableRecord
100
AcDbLinetypeTableRecord
  2
CONTINUOUS
 70
     0
  3
Solid line
 72
    65
 73
     0
 40
0.0
  0
ENDTAB
  0
TABLE
  2
LAYER
  5
2
100
AcDbSymbolTable
 70
1
  0
LAYER
  5
50
100
AcDbSymbolTableRecord
100
AcDbLayerTableRecord
  2
0
 70
0
  6
CONTINUOUS
  0
ENDTAB
  0
TABLE
  2
STYLE
  5
3
330
0
100
AcDbSymbolTable
 70
     1
  0
STYLE
  5
11
330
3
100
AcDbSymbolTableRecord
100
AcDbTextStyleTableRecord
  2
STANDARD
 70
     0
 40
0.0
 41
1.0
 50
0.0
 71
     0
 42
2.5
  3
txt
  4

  0
ENDTAB
  0
TABLE
  2
VIEW
  5
6
330
0
100
AcDbSymbolTable
 70
     0
  0
ENDTAB
  0
TABLE
  2
UCS
  5
7
330
0
100
AcDbSymbolTable
 70
     0
  0
ENDTAB
  0
TABLE
  2
APPID
  5
9
330
0
100
AcDbSymbolTable
 70
     2
  0
APPID
  5
12
330
9
100
AcDbSymbolTableRecord
100
AcDbRegAppTableRecord
  2
ACAD
 70
     0
  0
ENDTAB
  0
TABLE
  2
DIMSTYLE
  5
A
330
0
100
AcDbSymbolTable
 70
     1
  0
DIMSTYLE
105
27
330
A
100
AcDbSymbolTableRecord
100
AcDbDimStyleTableRecord
  2
ISO-25
 70
     0
  3

  4

  5

  6

  7

 40
1.0
 41
2.5
 42
0.625
 43
3.75
 44
1.25
 45
0.0
 46
0.0
 47
0.0
 48
0.0
140
2.5
141
2.5
142
0.0
143
0.03937007874016
144
1.0
145
0.0
146
1.0
147
0.625
 71
     0
 72
     0
 73
     0
 74
     0
 75
     0
 76
     0
 77
     1
 78
     8
170
     0
171
     3
172
     1
173
     0
174
     0
175
     0
176
     0
177
     0
178
     0
270
     2
271
     2
272
     2
273
     2
274
     3
340
11
275
     0
280
     0
281
     0
282
     0
283
     0
284
     8
285
     0
286
     0
287
     3
288
     0
  0
ENDTAB
  0
TABLE
  2
BLOCK_RECORD
  5
1
330
0
100
AcDbSymbolTable
 70
     1
  0
BLOCK_RECORD
  5
1F
330
1
100
AcDbSymbolTableRecord
100
AcDbBlockTableRecord
  2
*MODEL_SPACE
  0
BLOCK_RECORD
  5
1B
330
1
100
AcDbSymbolTableRecord
100
AcDbBlockTableRecord
  2
*PAPER_SPACE
  0
ENDTAB
  0
ENDSEC
  0
SECTION
  2
BLOCKS
  0
BLOCK
  5
20
330
1F
100
AcDbEntity
  8
0
100
AcDbBlockBegin
  2
*MODEL_SPACE
 70
     0
 10
0.0
 20
0.0
 30
0.0
  3
*MODEL_SPACE
  1

  0
ENDBLK
  5
21
330
1F
100
AcDbEntity
  8
0
100
AcDbBlockEnd
  0
BLOCK
  5
1C
330
1B
100
AcDbEntity
 67
     1
  8
0
100
AcDbBlockBegin
  2
*PAPER_SPACE
  1

  0
ENDBLK
  5
1D
330
1B
100
AcDbEntity
 67
     1
  8
0
100
AcDbBlockEnd
  0
ENDSEC
  0
SECTION
  2
ENTITIES
  0
LWPOLYLINE
  5
100
100
AcDbEntity
  8
0
 62
7
100
AcDbPolyline
 90
93
 70
1
 10
20.610561
 20
228.663893
 30
0.0
 10
20.610561
 20
222.663888
 30
0.0
 10
38.110575
 20
222.663888
 30
0.0
 10
38.110575
 20
228.663893
 30
0.0
 10
50.110585
 20
228.663893
 30
0.0
 10
50.110585
 20
222.663888
 30
0.0
 10
62.110595
 20
222.663888
 30
0.0
 10
62.110595
 20
228.663893
 30
0.0
 10
74.110605
 20
228.663893
 30
0.0
 10
74.110605
 20
222.663888
 30
0.0
 10
86.110615
 20
222.663888
 30
0.0
 10
86.110615
 20
228.663893
 30
0.0
 10
98.110625
 20
228.663893
 30
0.0
 10
98.110625
 20
222.663888
 30
0.0
 10
110.110635
 20
222.663888
 30
0.0
 10
110.110635
 20
228.663893
 30
0.0
 10
122.110644
 20
228.663893
 30
0.0
 10
122.110644
 20
222.663888
 30
0.0
 10
134.110654
 20
222.663888
 30
0.0
 10
134.110654
 20
228.663893
 30
0.0
 10
146.110664
 20
228.663893
 30
0.0
 10
146.110664
 20
222.663888
 30
0.0
 10
158.110674
 20
222.663888
 30
0.0
 10
158.110674
 20
228.663893
 30
0.0
 10
170.110684
 20
228.663893
 30
0.0
 10
170.110684
 20
222.663888
 30
0.0
 10
182.110694
 20
222.663888
 30
0.0
 10
182.110694
 20
228.663893
 30
0.0
 10
194.110704
 20
228.663893
 30
0.0
 10
194.110704
 20
222.663888
 30
0.0
 10
206.110714
 20
222.663888
 30
0.0
 10
206.110714
 20
228.663893
 30
0.0
 10
218.110723
 20
228.663893
 30
0.0
 10
218.110723
 20
222.663888
 30
0.0
 10
235.610736
 20
222.663888
 30
0.0
 10
235.610736
 20
228.663893
 30
0.0
 10
253.110752
 20
228.663893
 30
0.0
 10
253.110752
 20
214.663882
 30
0.0
 10
247.110747
 20
214.663882
 30
0.0
 10
247.110747
 20
200.663870
 30
0.0
 10
253.110752
 20
200.663870
 30
0.0
 10
253.110752
 20
186.663859
 30
0.0
 10
247.110747
 20
186.663859
 30
0.0
 10
247.110747
 20
172.663847
 30
0.0
 10
253.110752
 20
172.663847
 30
0.0
 10
253.110752
 20
158.663836
 30
0.0
 10
235.610736
 20
158.663836
 30
0.0
 10
235.610736
 20
164.663841
 30
0.0
 10
218.110723
 20
164.663841
 30
0.0
 10
218.110723
 20
158.663836
 30
0.0
 10
206.110714
 20
158.663836
 30
0.0
 10
206.110714
 20
164.663841
 30
0.0
 10
194.110704
 20
164.663841
 30
0.0
 10
194.110704
 20
158.663836
 30
0.0
 10
182.110694
 20
158.663836
 30
0.0
 10
182.110694
 20
164.663841
 30
0.0
 10
170.110684
 20
164.663841
 30
0.0
 10
170.110684
 20
158.663836
 30
0.0
 10
158.110674
 20
158.663836
 30
0.0
 10
158.110674
 20
164.663841
 30
0.0
 10
146.110664
 20
164.663841
 30
0.0
 10
146.110664
 20
158.663836
 30
0.0
 10
134.110654
 20
158.663836
 30
0.0
 10
134.110654
 20
164.663841
 30
0.0
 10
122.110644
 20
164.663841
 30
0.0
 10
122.110644
 20
158.663836
 30
0.0
 10
110.110635
 20
158.663836
 30
0.0
 10
110.110635
 20
164.663841
 30
0.0
 10
98.110625
 20
164.663841
 30
0.0
 10
98.110625
 20
158.663836
 30
0.0
 10
86.110615
 20
158.663836
 30
0.0
 10
86.110615
 20
164.663841
 30
0.0
 10
74.110605
 20
164.663841
 30
0.0
 10
74.110605
 20
158.663836
 30
0.0
 10
62.110595
 20
158.663836
 30
0.0
 10
62.110595
 20
164.663841
 30
0.0
 10
50.110585
 20
164.663841
 30
0.0
 10
50.110585
 20
158.663836
 30
0.0
 10
38.110575
 20
158.663836
 30
0.0
 10
38.110575
 20
164.663841
 30
0.0
 10
20.610561
 20
164.663841
 30
0.0
 10
20.610561
 20
158.663836
 30
0.0
 10
3.110547
 20
158.663836
 30
0.0
 10
3.110547
 20
172.663847
 30
0.0
 10
9.110552
 20
172.663847
 30
0.0
 10
9.110552
 20
186.663859
 30
0.0
 10
3.110547
 20
186.663859
 30
0.0
 10
3.110547
 20
200.663870
 30
0.0
 10
9.110552
 20
200.663870
 30
0.0
 10
9.110552
 20
214.663882
 30
0.0
 10
3.110547
 20
214.663882
 30
0.0
 10
3.110547
 20
228.663893
 30
0.0
 10
20.610561
 20
228.663893
 30
0.0
  0
LWPOLYLINE
  5
101
100
AcDbEntity
  8
0
 62
7
100
AcDbPolyline
 90
5
 70
1
 10
83.110615
 20
208.663876
 30
0.0
 10
178.110691
 20
208.663876
 30
0.0
 10
178.110691
 20
197.663867
 30
0.0
 10
83.110615
 20
197.663867
 30
0.0
 10
83.110615
 20
208.663876
 30
0.0
  0
LWPOLYLINE
  5
102
100
AcDbEntity
  8
0
 62
7
100
AcDbPolyline
 90
5
 70
1
 10
83.110615
 20
182.393854
 30
0.0
 10
178.110691
 20
182.393854
 30
0.0
 10
178.110691
 20
171.393845
 30
0.0
 10
83.110615
 20
171.393845
 30
0.0
 10
83.110615
 20
182.393854
 30
0.0
  0
SPLINE
  5
103
100
AcDbEntity
  8
0
 62
7
100
AcDbSpline
 70
0
 71
3
 72
31
 73
27
 74
25
 40
0.000000
 40
0.000000
 40
0.000000
 40
0.000000
 40
0.959004
 40
1.808374
 40
2.599691
 40
3.365287
 40
4.145849
 40
5.009599
 40
5.889169
 40
6.674617
 40
7.433634
 40
8.218806
 40
9.074966
 40
10.054065
 40
11.025405
 40
11.876199
 40
12.658770
 40
13.417560
 40
14.204514
 40
15.086702
 40
15.947727
 40
16.725702
 40
17.488423
 40
18.277436
 40
19.126582
 40
20.087510
 40
20.087510
 40
20.087510
 40
20.087510
 10
22.757052
 20
171.985904
 30
0.0
 10
22.742901
 20
171.665497
 30
0.0
 10
22.716216
 20
171.061312
 30
0.0
 10
22.451828
 20
170.224139
 30
0.0
 10
22.012550
 20
169.541108
 30
0.0
 10
21.406636
 20
169.030531
 30
0.0
 10
20.647556
 20
168.730419
 30
0.0
 10
19.802960
 20
168.648954
 30
0.0
 10
18.957110
 20
168.728959
 30
0.0
 10
18.190238
 20
169.021195
 30
0.0
 10
17.581237
 20
169.524713
 30
0.0
 10
17.143987
 20
170.208728
 30
0.0
 10
16.891689
 20
171.054523
 30
0.0
 10
16.822219
 20
171.992085
 30
0.0
 10
16.891798
 20
172.927941
 30
0.0
 10
17.145369
 20
173.768005
 30
0.0
 10
17.584132
 20
174.447788
 30
0.0
 10
18.194872
 20
174.948410
 30
0.0
 10
18.963706
 20
175.238730
 30
0.0
 10
19.809946
 20
175.318315
 30
0.0
 10
20.653655
 20
175.237316
 30
0.0
 10
21.410283
 20
174.938689
 30
0.0
 10
22.014892
 20
174.430637
 30
0.0
 10
22.453218
 20
173.748990
 30
0.0
 10
22.716457
 20
172.911683
 30
0.0
 10
22.742974
 20
172.306945
 30
0.0
 10
22.757052
 20
171.985904
 30
0.0
 11
22.757052
 21
171.985904
 31
0.0
 11
22.670381
 21
171.030824
 31
0.0
 11
22.410371
 21
170.222230
 31
0.0
 11
21.977022
 21
169.560120
 31
0.0
 11
21.389375
 21
169.069397
 31
0.0
 11
20.666474
 21
168.774963
 31
0.0
 11
19.808318
 21
168.676818
 31
0.0
 11
18.934050
 21
168.773253
 31
0.0
 11
18.203825
 21
169.062560
 31
0.0
 11
17.617642
 21
169.544739
 31
0.0
 11
17.189175
 21
170.202699
 31
0.0
 11
16.932094
 21
171.019350
 31
0.0
 11
16.846401
 21
171.994693
 31
0.0
 11
16.932339
 21
172.962223
 31
0.0
 11
17.190152
 21
173.773015
 31
0.0
 11
17.619839
 21
174.427068
 31
0.0
 11
18.207730
 21
174.906805
 31
0.0
 11
18.940153
 21
175.194647
 31
0.0
 11
19.817107
 21
175.290594
 31
0.0
 11
20.672577
 21
175.192938
 31
0.0
 11
21.393281
 21
174.899968
 31
0.0
 11
21.979219
 21
174.411687
 31
0.0
 11
22.411348
 21
173.751531
 31
0.0
 11
22.670626
 21
172.942937
 31
0.0
 11
22.757052
 21
171.985904
 31
0.0
  0
LWPOLYLINE
  5
104
100
AcDbEntity
  8
0
 62
7
100
AcDbPolyline
 90
2
 70
1
 10
22.757052
 20
171.985904
 30
0.0
 10
22.757052
 20
171.985904
 30
0.0
  0
SPLINE
  5
105
100
AcDbEntity
  8
0
 62
7
100
AcDbSpline
 70
0
 71
3
 72
31
 73
27
 74
25
 40
0.000000
 40
0.000000
 40
0.000000
 40
0.000000
 40
0.802433
 40
1.487873
 40
2.092479
 40
2.660242
 40
3.243645
 40
3.898100
 40
4.556163
 40
5.138608
 40
5.701721
 40
6.302599
 40
6.987759
 40
7.792289
 40
8.589253
 40
9.269278
 40
9.867223
 40
10.428246
 40
11.008380
 40
11.663746
 40
12.323051
 40
12.909158
 40
13.477656
 40
14.080582
 40
14.760377
 40
15.553070
 40
15.553070
 40
15.553070
 40
15.553070
 10
17.637417
 20
171.985904
 30
0.0
 10
17.647148
 20
171.717975
 30
0.0
 10
17.665190
 20
171.221180
 30
0.0
 10
17.848071
 20
170.540568
 30
0.0
 10
18.160160
 20
169.995756
 30
0.0
 10
18.606994
 20
169.600271
 30
0.0
 10
19.174980
 20
169.371570
 30
0.0
 10
19.809541
 20
169.310552
 30
0.0
 10
20.443669
 20
169.371086
 30
0.0
 10
21.011834
 20
169.598172
 30
0.0
 10
21.454635
 20
169.993903
 30
0.0
 10
21.760902
 20
170.539250
 30
0.0
 10
21.935151
 20
171.219895
 30
0.0
 10
21.982672
 20
171.983364
 30
0.0
 10
21.935259
 20
172.745148
 30
0.0
 10
21.761373
 20
173.420495
 30
0.0
 10
21.456444
 20
173.962555
 30
0.0
 10
21.015779
 20
174.356878
 30
0.0
 10
20.449886
 20
174.583304
 30
0.0
 10
19.815792
 20
174.643603
 30
0.0
 10
19.179682
 20
174.582744
 30
0.0
 10
18.608454
 20
174.354561
 30
0.0
 10
18.160765
 20
173.959027
 30
0.0
 10
17.848848
 20
173.416830
 30
0.0
 10
17.665313
 20
172.742286
 30
0.0
 10
17.647179
 20
172.250597
 30
0.0
 10
17.637417
 20
171.985904
 30
0.0
 11
17.637417
 21
171.985904
 31
0.0
 11
17.699184
 21
171.185851
 31
0.0
 11
17.884485
 21
170.525934
 31
0.0
 11
18.193322
 21
170.006156
 31
0.0
 11
18.619835
 21
169.631401
 31
0.0
 11
19.158166
 21
169.406547
 31
0.0
 11
19.808314
 21
169.331595
 31
0.0
 11
20.462123
 21
169.406302
 31
0.0
 11
20.999721
 21
169.630424
 31
0.0
 11
21.421108
 21
170.003959
 31
0.0
 11
21.723844
 21
170.523002
 31
0.0
 11
21.905484
 21
171.183647
 31
0.0
 11
21.966031
 21
171.985895
 31
0.0
 11
21.905728
 21
172.780575
 31
0.0
 11
21.724819
 21
173.436094
 31
0.0
 11
21.423306
 21
173.952454
 31
0.0
 11
21.003629
 21
174.324769
 31
0.0
 11
20.468229
 21
174.548158
 31
0.0
 11
19.817107
 21
174.622621
 31
0.0
 11
19.162077
 21
174.547669
 31
0.0
 11
18.620816
 21
174.322815
 31
0.0
 11
18.193326
 21
173.948059
 31
0.0
 11
17.884489
 21
173.430238
 31
0.0
 11
17.699185
 21
172.776186
 31
0.0
 11
17.637417
 21
171.985904
 31
0.0
  0
LWPOLYLINE
  5
106
100
AcDbEntity
  8
0
 62
7
100
AcDbPolyline
 90
2
 70
1
 10
17.637417
 20
171.985904
 30
0.0
 10
17.637417
 20
171.985904
 30
0.0
  0
SPLINE
  5
107
100
AcDbEntity
  8
0
 62
7
100
AcDbSpline
 70
0
 71
3
 72
16
 73
12
 74
10
 40
0.000000
 40
0.000000
 40
0.000000
 40
0.000000
 40
0.417787
 40
0.801712
 40
1.194628
 40
1.624317
 40
2.108578
 40
2.668640
 40
3.261395
 40
3.769593
 40
4.207581
 40
4.207581
 40
4.207581
 40
4.207581
 10
27.186744
 20
170.078675
 30
0.0
 10
27.177480
 20
169.938642
 30
0.0
 10
27.159704
 20
169.669926
 30
0.0
 10
26.980254
 20
169.302639
 30
0.0
 10
26.687568
 20
169.017586
 30
0.0
 10
26.295793
 20
168.815334
 30
0.0
 10
25.815192
 20
168.697777
 30
0.0
 10
25.268221
 20
168.665838
 30
0.0
 10
24.715439
 20
168.696595
 30
0.0
 10
24.205245
 20
168.784661
 30
0.0
 10
23.918225
 20
168.918221
 30
0.0
 10
23.785364
 20
168.980045
 30
0.0
 11
27.186744
 21
170.078675
 31
0.0
 11
27.131076
 21
169.664613
 31
0.0
 11
26.964078
 21
169.318911
 31
0.0
 11
26.685754
 21
169.041569
 31
0.0
 11
26.306846
 21
168.838933
 31
0.0
 11
25.838096
 21
168.717350
 31
0.0
 11
25.279502
 21
168.676822
 31
0.0
 11
24.687706
 21
168.710514
 31
0.0
 11
24.189660
 21
168.811588
 31
0.0
 11
23.785364
 21
168.980045
 31
0.0
  0
SPLINE
  5
108
100
AcDbEntity
  8
0
 62
7
100
AcDbSpline
 70
0
 71
3
 72
25
 73
21
 74
19
 40
0.000000
 40
0.000000
 40
0.000000
 40
0.000000
 40
0.260873
 40
0.525760
 40
0.796091
 40
1.064004
 40
1.321831
 40
1.571352
 40
1.923500
 40
2.222711
 40
2.478050
 40
2.700772
 40
2.912555
 40
3.142890
 40
3.323404
 40
3.503231
 40
3.699747
 40
3.956311
 40
4.310393
 40
4.765003
 40
4.765003
 40
4.765003
 40
4.765003
 10
23.785364
 20
169.656804
 30
0.0
 10
23.863838
 20
169.619244
 30
0.0
 10
24.021993
 20
169.543545
 30
0.0
 10
24.271555
 20
169.452254
 30
0.0
 10
24.528646
 20
169.377019
 30
0.0
 10
24.788274
 20
169.320949
 30
0.0
 10
25.044735
 20
169.286550
 30
0.0
 10
25.331255
 20
169.274151
 30
0.0
 10
25.631932
 20
169.289384
 30
0.0
 10
25.930020
 20
169.346902
 30
0.0
 10
26.171962
 20
169.445525
 30
0.0
 10
26.355742
 20
169.591648
 30
0.0
 10
26.464373
 20
169.791325
 30
0.0
 10
26.493028
 20
170.000556
 30
0.0
 10
26.466663
 20
170.198419
 30
0.0
 10
26.379500
 20
170.366351
 30
0.0
 10
26.229630
 20
170.518255
 30
0.0
 10
25.999364
 20
170.660078
 30
0.0
 10
25.679872
 20
170.815373
 30
0.0
 10
25.429210
 20
170.914849
 30
0.0
 10
25.288300
 20
170.970770
 30
0.0
 11
23.785364
 21
169.656804
 31
0.0
 11
24.022426
 21
169.547916
 31
0.0
 11
24.270717
 21
169.455631
 31
0.0
 11
24.530238
 21
169.379948
 31
0.0
 11
24.792201
 21
169.323796
 31
0.0
 11
25.047816
 21
169.290105
 31
0.0
 11
25.297085
 21
169.278874
 31
0.0
 11
25.648649
 21
169.299137
 31
0.0
 11
25.941619
 21
169.359928
 31
0.0
 11
26.175996
 21
169.461247
 31
0.0
 11
26.346895
 21
169.604071
 31
0.0
 11
26.449434
 21
169.789375
 31
0.0
 11
26.483614
 21
170.017160
 31
0.0
 11
26.456514
 21
170.195628
 31
0.0
 11
26.375215
 21
170.356029
 31
0.0
 11
26.239717
 21
170.498362
 31
0.0
 11
26.025605
 21
170.639718
 31
0.0
 11
25.708466
 21
170.797187
 31
0.0
 11
25.288300
 21
170.970770
 31
0.0
  0
LWPOLYLINE
  5
109
100
AcDbEntity
  8
0
 62
7
100
AcDbPolyline
 90
2
 70
1
 10
23.785364
 20
168.980045
 30
0.0
 10
23.785364
 20
169.656804
 30
0.0
  0
SPLINE
  5
10a
100
AcDbEntity
  8
0
 62
7
100
AcDbSpline
 70
0
 71
3
 72
25
 73
21
 74
19
 40
0.000000
 40
0.000000
 40
0.000000
 40
0.000000
 40
0.435455
 40
0.785815
 40
1.052691
 40
1.269049
 40
1.468442
 40
1.655614
 40
1.840795
 40
2.035312
 40
2.245349
 40
2.614199
 40
2.962737
 40
3.331055
 40
3.736766
 40
4.189230
 40
4.707705
 40
5.223553
 40
5.741246
 40
6.270325
 40
6.270325
 40
6.270325
 40
6.270325
 10
25.288300
 20
170.970770
 30
0.0
 10
25.152709
 20
171.022651
 30
0.0
 10
24.908023
 20
171.116275
 30
0.0
 10
24.587847
 20
171.260321
 30
0.0
 10
24.343578
 20
171.394049
 30
0.0
 10
24.160748
 20
171.530761
 30
0.0
 10
24.017646
 20
171.672901
 30
0.0
 10
23.905659
 20
171.828419
 30
0.0
 10
23.826823
 20
172.001520
 30
0.0
 10
23.781292
 20
172.193926
 30
0.0
 10
23.763552
 20
172.451704
 30
0.0
 10
23.803006
 20
172.763535
 30
0.0
 10
23.972492
 20
173.092057
 30
0.0
 10
24.251544
 20
173.350430
 30
0.0
 10
24.619000
 20
173.539054
 30
0.0
 10
25.067943
 20
173.648740
 30
0.0
 10
25.564455
 20
173.680422
 30
0.0
 10
26.081721
 20
173.645042
 30
0.0
 10
26.594646
 20
173.541290
 30
0.0
 10
26.920813
 20
173.415957
 30
0.0
 10
27.085670
 20
173.352609
 30
0.0
 11
25.288300
 21
170.970770
 31
0.0
 11
24.883270
 21
171.130683
 31
0.0
 11
24.564666
 21
171.276435
 31
0.0
 11
24.332488
 21
171.408026
 31
0.0
 11
24.159637
 21
171.538153
 31
0.0
 11
24.019012
 21
171.679511
 31
0.0
 11
23.910613
 21
171.832099
 31
0.0
 11
23.833709
 21
172.000556
 31
0.0
 11
23.787566
 21
172.189521
 31
0.0
 11
23.772185
 21
172.398994
 31
0.0
 11
23.825407
 21
172.763984
 31
0.0
 11
23.985075
 21
173.073799
 31
0.0
 11
24.251190
 21
173.328439
 31
0.0
 11
24.610078
 21
173.517648
 31
0.0
 11
25.048068
 21
173.631174
 31
0.0
 11
25.565160
 21
173.669015
 31
0.0
 11
26.079809
 21
173.633859
 31
0.0
 11
26.586645
 21
173.528390
 31
0.0
 11
27.085670
 21
173.352609
 31
0.0
  0
SPLINE
  5
10b
100
AcDbEntity
  8
0
 62
7
100
AcDbSpline
 70
0
 71
3
 72
25
 73
21
 74
19
 40
0.000000
 40
0.000000
 40
0.000000
 40
0.000000
 40
0.496821
 40
0.945994
 40
1.355058
 40
1.672956
 40
1.939271
 40
2.162470
 40
2.353150
 40
2.526498
 40
2.705666
 40
2.828716
 40
2.943416
 40
3.055038
 40
3.174539
 40
3.311464
 40
3.468549
 40
3.681896
 40
3.987151
 40
4.384868
 40
4.384868
 40
4.384868
 40
4.384868
 10
26.826392
 20
172.759346
 30
0.0
 10
26.671555
 20
172.818502
 30
0.0
 10
26.376732
 20
172.931139
 30
0.0
 10
25.934930
 20
173.033014
 30
0.0
 10
25.542894
 20
173.066112
 30
0.0
 10
25.211464
 20
173.048742
 30
0.0
 10
24.945738
 20
172.998536
 30
0.0
 10
24.734799
 20
172.909551
 30
0.0
 10
24.579441
 20
172.785308
 30
0.0
 10
24.483907
 20
172.626136
 30
0.0
 10
24.461036
 20
172.465856
 30
0.0
 10
24.473129
 20
172.326880
 30
0.0
 10
24.505983
 20
172.214148
 30
0.0
 10
24.563482
 20
172.113025
 30
0.0
 10
24.646738
 20
172.021891
 30
0.0
 10
24.754779
 20
171.935696
 30
0.0
 10
24.898793
 20
171.846338
 30
0.0
 10
25.102598
 20
171.749799
 30
0.0
 10
25.384580
 20
171.632375
 30
0.0
 10
25.603756
 20
171.549431
 30
0.0
 10
25.727758
 20
171.502505
 30
0.0
 11
26.826392
 21
172.759346
 31
0.0
 11
26.358129
 21
172.925361
 31
0.0
 11
25.920140
 21
173.024971
 31
0.0
 11
25.512426
 21
173.058175
 31
0.0
 11
25.195042
 21
173.040109
 31
0.0
 11
24.934300
 21
172.985910
 31
0.0
 11
24.730198
 21
172.895577
 31
0.0
 11
24.583714
 21
172.773505
 31
0.0
 11
24.495823
 21
172.624091
 31
0.0
 11
24.466526
 21
172.447334
 31
0.0
 11
24.477512
 21
172.324776
 31
0.0
 11
24.510472
 21
172.214913
 31
0.0
 11
24.565403
 21
172.117744
 31
0.0
 11
24.644749
 21
172.028387
 31
0.0
 11
24.750951
 21
171.941960
 31
0.0
 11
24.884007
 21
171.858462
 31
0.0
 11
25.075413
 21
171.764223
 31
0.0
 11
25.356663
 21
171.645570
 31
0.0
 11
25.727758
 21
171.502505
 31
0.0
  0
LWPOLYLINE
  5
10c
100
AcDbEntity
  8
0
 62
7
100
AcDbPolyline
 90
2
 70
1
 10
27.085670
 20
173.352609
 30
0.0
 10
26.826392
 20
172.759346
 30
0.0
  0
SPLINE
  5
10d
100
AcDbEntity
  8
0
 62
7
100
AcDbSpline
 70
0
 71
3
 72
13
 73
9
 74
7
 40
0.000000
 40
0.000000
 40
0.000000
 40
0.000000
 40
0.550530
 40
0.989693
 40
1.326101
 40
1.609669
 40
1.893158
 40
2.196279
 40
2.196279
 40
2.196279
 40
2.196279
 10
25.727758
 20
171.502505
 30
0.0
 10
25.899200
 20
171.436651
 30
0.0
 10
26.207404
 20
171.318265
 30
0.0
 10
26.599563
 20
171.112289
 30
0.0
 10
26.884307
 20
170.897552
 30
0.0
 10
27.063872
 20
170.651259
 30
0.0
 10
27.169732
 20
170.376271
 30
0.0
 10
27.180948
 20
170.180063
 30
0.0
 10
27.186744
 20
170.078675
 30
0.0
 11
25.727758
 21
171.502505
 31
0.0
 11
26.237280
 21
171.294009
 31
0.0
 11
26.623266
 21
171.084536
 31
0.0
 11
26.885718
 21
170.874086
 31
0.0
 11
27.052955
 21
170.645082
 31
0.0
 11
27.153297
 21
170.379945
 31
0.0
 11
27.186744
 21
170.078675
 31
0.0
  0
LWPOLYLINE
  5
10e
100
AcDbEntity
  8
0
 62
7
100
AcDbPolyline
 90
2
 70
1
 10
27.186744
 20
170.078675
 30
0.0
 10
27.186744
 20
170.078675
 30
0.0
  0
SPLINE
  5
10f
100
AcDbEntity
  8
0
 62
7
100
AcDbSpline
 70
0
 71
3
 72
25
 73
21
 74
19
 40
0.000000
 40
0.000000
 40
0.000000
 40
0.000000
 40
0.648734
 40
1.229625
 40
1.792642
 40
2.375881
 40
3.012443
 40
3.741067
 40
4.488501
 40
5.140615
 40
5.736545
 40
6.311402
 40
6.906435
 40
7.573310
 40
7.804906
 40
8.037689
 40
8.272828
 40
8.494049
 40
8.684906
 40
8.846732
 40
8.846732
 40
8.846732
 40
8.846732
 10
30.298075
 20
168.676818
 30
0.0
 10
30.081047
 20
168.688502
 30
0.0
 10
29.669688
 20
168.710647
 30
0.0
 10
29.102999
 20
168.933993
 30
0.0
 10
28.651562
 20
169.305633
 30
0.0
 10
28.326327
 20
169.813818
 30
0.0
 10
28.138717
 20
170.442659
 30
0.0
 10
28.087133
 20
171.148443
 30
0.0
 10
28.139315
 20
171.859334
 30
0.0
 10
28.329410
 20
172.503896
 30
0.0
 10
28.659394
 20
173.024708
 30
0.0
 10
29.120277
 20
173.407500
 30
0.0
 10
29.700935
 20
173.629494
 30
0.0
 10
30.201489
 20
173.676652
 30
0.0
 10
30.578411
 20
173.663476
 30
0.0
 10
30.810477
 20
173.638438
 30
0.0
 10
31.036727
 20
173.597559
 30
0.0
 10
31.246260
 20
173.546139
 30
0.0
 10
31.429630
 20
173.490083
 30
0.0
 10
31.536588
 20
173.441027
 30
0.0
 10
31.585665
 20
173.418518
 30
0.0
 11
30.298075
 21
168.676818
 31
0.0
 11
29.653296
 21
168.748348
 31
0.0
 11
29.113497
 21
168.962941
 31
0.0
 11
28.678680
 21
169.320604
 31
0.0
 11
28.360076
 21
169.809132
 31
0.0
 11
28.168914
 21
170.416311
 31
0.0
 11
28.105193
 21
171.142144
 31
0.0
 11
28.169891
 21
171.886773
 31
0.0
 11
28.363983
 21
172.509332
 31
0.0
 11
28.687469
 21
173.009822
 31
0.0
 11
29.130583
 21
173.376033
 31
0.0
 11
29.683561
 21
173.595760
 31
0.0
 11
30.346402
 21
173.669002
 31
0.0
 11
30.577849
 21
173.660701
 31
0.0
 11
30.809296
 21
173.635798
 31
0.0
 11
31.040743
 21
173.594295
 31
0.0
 11
31.255588
 21
173.541562
 31
0.0
 11
31.437228
 21
173.482970
 31
0.0
 11
31.585665
 21
173.418518
 31
0.0
  0
LWPOLYLINE
  5
110
100
AcDbEntity
  8
0
 62
7
100
AcDbPolyline
 90
2
 70
1
 10
31.585665
 20
173.418518
 30
0.0
 10
31.361544
 20
172.798888
 30
0.0
  0
SPLINE
  5
111
100
AcDbEntity
  8
0
 62
7
100
AcDbSpline
 70
0
 71
3
 72
25
 73
21
 74
19
 40
0.000000
 40
0.000000
 40
0.000000
 40
0.000000
 40
0.176797
 40
0.360531
 40
0.551729
 40
0.738224
 40
0.908013
 40
1.061983
 40
1.903527
 40
2.696483
 40
3.749232
 40
4.296580
 40
4.766113
 40
5.179460
 40
5.561960
 40
5.949484
 40
6.383124
 40
6.788933
 40
7.209530
 40
7.652085
 40
7.652085
 40
7.652085
 40
7.652085
 10
31.361544
 20
172.798888
 30
0.0
 10
31.306433
 20
172.819811
 30
0.0
 10
31.194049
 20
172.862477
 30
0.0
 10
31.017715
 20
172.915200
 30
0.0
 10
30.836071
 20
172.960511
 30
0.0
 10
30.656961
 20
172.995660
 30
0.0
 10
30.487940
 20
173.017764
 30
0.0
 10
30.101152
 20
173.035332
 30
0.0
 10
29.467030
 20
172.915682
 30
0.0
 10
28.908680
 20
172.131658
 30
0.0
 10
28.843353
 20
171.317754
 30
0.0
 10
28.880983
 20
170.629029
 30
0.0
 10
28.996579
 20
170.162346
 30
0.0
 10
29.195731
 20
169.784559
 30
0.0
 10
29.484648
 20
169.504491
 30
0.0
 10
29.860175
 20
169.341784
 30
0.0
 10
30.271715
 20
169.301672
 30
0.0
 10
30.691215
 20
169.335087
 30
0.0
 10
31.107226
 20
169.420574
 30
0.0
 10
31.377026
 20
169.521537
 30
0.0
 10
31.515357
 20
169.573303
 30
0.0
 11
31.361544
 21
172.798888
 31
0.0
 11
31.195527
 21
172.859681
 31
0.0
 11
31.019746
 21
172.913149
 31
0.0
 11
30.834200
 21
172.959293
 31
0.0
 11
30.651096
 21
172.994694
 31
0.0
 11
30.482640
 21
173.015934
 31
0.0
 11
30.328833
 21
173.023014
 31
0.0
 11
29.513401
 21
172.815006
 31
0.0
 11
29.024143
 21
172.190982
 31
0.0
 11
28.861058
 21
171.150942
 31
0.0
 11
28.900853
 21
170.605042
 31
0.0
 11
29.020238
 21
170.150940
 31
0.0
 11
29.219212
 21
169.788636
 31
0.0
 11
29.496311
 21
169.524963
 31
0.0
 11
29.850071
 21
169.366760
 31
0.0
 11
30.280493
 21
169.314026
 31
0.0
 11
30.685278
 21
169.342835
 31
0.0
 11
31.096899
 21
169.429261
 31
0.0
 11
31.515357
 21
169.573303
 31
0.0
  0
LWPOLYLINE
  5
112
100
AcDbEntity
  8
0
 62
7
100
AcDbPolyline
 90
2
 70
1
 10
31.515357
 20
169.573303
 30
0.0
 10
31.515357
 20
168.927307
 30
0.0
  0
LWPOLYLINE
  5
113
100
AcDbEntity
  8
0
 62
7
100
AcDbPolyline
 90
2
 70
1
 10
30.298075
 20
168.676818
 30
0.0
 10
30.298075
 20
168.676818
 30
0.0
  0
SPLINE
  5
114
100
AcDbEntity
  8
0
 62
7
100
AcDbSpline
 70
0
 71
3
 72
10
 73
6
 74
4
 40
0.000000
 40
0.000000
 40
0.000000
 40
0.000000
 40
0.376740
 40
0.791003
 40
1.253266
 40
1.253266
 40
1.253266
 40
1.253266
 10
31.515357
 20
168.927307
 30
0.0
 10
31.400118
 20
168.876635
 30
0.0
 10
31.158161
 20
168.770244
 30
0.0
 10
30.744227
 20
168.691469
 30
0.0
 10
30.452124
 20
168.681877
 30
0.0
 10
30.298075
 20
168.676818
 30
0.0
 11
31.515357
 21
168.927307
 31
0.0
 11
31.165261
 21
168.788146
 31
0.0
 11
30.759500
 21
168.704650
 31
0.0
 11
30.298075
 21
168.676818
 31
0.0
  0
LWPOLYLINE
  5
115
100
AcDbEntity
  8
0
 62
7
100
AcDbPolyline
 90
3
 70
1
 10
35.619859
 20
168.764709
 30
0.0
 10
35.474835
 20
169.450256
 30
0.0
 10
35.439679
 20
169.450256
 30
0.0
  0
SPLINE
  5
116
100
AcDbEntity
  8
0
 62
7
100
AcDbSpline
 70
0
 71
3
 72
22
 73
18
 74
16
 40
0.000000
 40
0.000000
 40
0.000000
 40
0.000000
 40
0.360711
 40
0.675542
 40
0.952237
 40
1.225707
 40
1.528558
 40
1.866674
 40
2.311685
 40
2.705663
 40
3.073548
 40
3.433863
 40
3.809268
 40
4.231126
 40
5.089576
 40
6.019568
 40
7.331472
 40
7.331472
 40
7.331472
 40
7.331472
 10
35.439679
 20
169.450256
 30
0.0
 10
35.362145
 20
169.358176
 30
0.0
 10
35.216940
 20
169.185729
 30
0.0
 10
34.975720
 20
168.977015
 30
0.0
 10
34.726276
 20
168.828545
 30
0.0
 10
34.454705
 20
168.738695
 30
0.0
 10
34.153500
 20
168.686900
 30
0.0
 10
33.791378
 20
168.668974
 30
0.0
 10
33.397788
 20
168.698563
 30
0.0
 10
33.009828
 20
168.820873
 30
0.0
 10
32.693498
 20
169.030237
 30
0.0
 10
32.457914
 20
169.321106
 30
0.0
 10
32.323077
 20
169.689126
 30
0.0
 10
32.263819
 20
170.238579
 30
0.0
 10
32.473186
 20
171.012758
 30
0.0
 10
33.447450
 20
171.548768
 30
0.0
 10
34.194140
 20
171.597206
 30
0.0
 10
34.631084
 20
171.625552
 30
0.0
 11
35.439679
 21
169.450256
 31
0.0
 11
35.199688
 21
169.180968
 31
0.0
 11
34.960185
 21
168.976622
 31
0.0
 11
34.721172
 21
168.837219
 31
0.0
 11
34.462629
 21
168.748108
 31
0.0
 11
34.164534
 21
168.694641
 31
0.0
 11
33.826889
 21
168.676818
 31
0.0
 11
33.383772
 21
168.717834
 31
0.0
 11
33.009502
 21
168.840881
 31
0.0
 11
32.704081
 21
169.045959
 31
0.0
 11
32.478250
 21
169.326721
 31
0.0
 11
32.342752
 21
169.676820
 31
0.0
 11
32.297586
 21
170.096253
 31
0.0
 11
32.556864
 21
170.914612
 31
0.0
 11
33.334696
 21
171.424379
 31
0.0
 11
34.631084
 21
171.625552
 31
0.0
  0
LWPOLYLINE
  5
117
100
AcDbEntity
  8
0
 62
7
100
AcDbPolyline
 90
3
 70
1
 10
34.631084
 20
171.625552
 30
0.0
 10
35.448468
 20
171.651919
 30
0.0
 10
35.448468
 20
171.950747
 30
0.0
  0
SPLINE
  5
118
100
AcDbEntity
  8
0
 62
7
100
AcDbSpline
 70
0
 71
3
 72
16
 73
12
 74
10
 40
0.000000
 40
0.000000
 40
0.000000
 40
0.000000
 40
0.346034
 40
0.636688
 40
0.889248
 40
1.135410
 40
1.410585
 40
1.736921
 40
2.157868
 40
2.628344
 40
3.158843
 40
3.158843
 40
3.158843
 40
3.158843
 10
35.448468
 20
171.950747
 30
0.0
 10
35.444300
 20
172.066313
 30
0.0
 10
35.436630
 20
172.278949
 30
0.0
 10
35.356910
 20
172.567772
 30
0.0
 10
35.218000
 20
172.796882
 30
0.0
 10
35.007371
 20
172.955956
 30
0.0
 10
34.734619
 20
173.043123
 30
0.0
 10
34.392725
 20
173.069310
 30
0.0
 10
33.987058
 20
173.026018
 30
0.0
 10
33.527969
 20
172.899472
 30
0.0
 10
33.223567
 20
172.761926
 30
0.0
 10
33.062240
 20
172.689029
 30
0.0
 11
35.448468
 21
171.950747
 31
0.0
 11
35.421369
 21
172.295718
 31
0.0
 11
35.340070
 21
172.574771
 31
0.0
 11
35.204571
 21
172.787906
 31
0.0
 11
35.009503
 21
172.938053
 31
0.0
 11
34.749492
 21
173.028141
 31
0.0
 11
34.424541
 21
173.058170
 31
0.0
 11
34.005597
 21
173.017155
 31
0.0
 11
33.551496
 21
172.894108
 31
0.0
 11
33.062240
 21
172.689029
 31
0.0
  0
LWPOLYLINE
  5
119
100
AcDbEntity
  8
0
 62
7
100
AcDbPolyline
 90
2
 70
1
 10
33.062240
 20
172.689029
 30
0.0
 10
32.838118
 20
173.247135
 30
0.0
  0
SPLINE
  5
11a
100
AcDbEntity
  8
0
 62
7
100
AcDbSpline
 70
0
 71
3
 72
19
 73
15
 74
13
 40
0.000000
 40
0.000000
 40
0.000000
 40
0.000000
 40
0.272533
 40
0.551497
 40
0.838752
 40
1.128218
 40
1.414022
 40
1.698221
 40
2.224597
 40
2.668808
 40
3.058246
 40
3.441597
 40
3.873096
 40
4.386405
 40
4.386405
 40
4.386405
 40
4.386405
 10
32.838118
 20
173.247135
 30
0.0
 10
32.919072
 20
173.288478
 30
0.0
 10
33.082891
 20
173.372139
 30
0.0
 10
33.344565
 20
173.471975
 30
0.0
 10
33.617893
 20
173.554212
 30
0.0
 10
33.899204
 20
173.615157
 30
0.0
 10
34.183698
 20
173.652156
 30
0.0
 10
34.549102
 20
173.667145
 30
0.0
 10
34.968594
 20
173.638813
 30
0.0
 10
35.409394
 20
173.516553
 30
0.0
 10
35.760348
 20
173.297482
 30
0.0
 10
36.003318
 20
172.967241
 30
0.0
 10
36.140288
 20
172.538964
 30
0.0
 10
36.153312
 20
172.223313
 30
0.0
 10
36.160387
 20
172.051822
 30
0.0
 11
32.838118
 21
173.247135
 31
0.0
 11
33.082992
 21
173.366763
 31
0.0
 11
33.343002
 21
173.467838
 31
0.0
 11
33.618148
 21
173.550358
 31
0.0
 11
33.901107
 21
173.611394
 31
0.0
 11
34.184554
 21
173.648015
 31
0.0
 11
34.468491
 21
173.660222
 31
0.0
 11
34.993150
 21
173.617741
 31
0.0
 11
35.418688
 21
173.490300
 31
0.0
 11
35.745104
 21
173.277897
 31
0.0
 11
35.975817
 21
172.971744
 31
0.0
 11
36.114245
 21
172.563053
 31
0.0
 11
36.160387
 21
172.051822
 31
0.0
  0
LWPOLYLINE
  5
11b
100
AcDbEntity
  8
0
 62
7
100
AcDbPolyline
 90
4
 70
1
 10
36.160387
 20
172.051822
 30
0.0
 10
36.160387
 20
168.764709
 30
0.0
 10
35.619859
 20
168.764709
 30
0.0
 10
35.619859
 20
168.764709
 30
0.0
  0
SPLINE
  5
11c
100
AcDbEntity
  8
0
 62
7
100
AcDbSpline
 70
0
 71
3
 72
13
 73
9
 74
7
 40
0.000000
 40
0.000000
 40
0.000000
 40
0.000000
 40
0.423670
 40
0.801469
 40
1.159495
 40
1.514933
 40
1.886889
 40
2.304172
 40
2.304172
 40
2.304172
 40
2.304172
 10
33.971904
 20
169.278869
 30
0.0
 10
34.113524
 20
169.285670
 30
0.0
 10
34.381430
 20
169.298535
 30
0.0
 10
34.752306
 20
169.426396
 30
0.0
 10
35.054086
 20
169.638478
 30
0.0
 10
35.276777
 20
169.930526
 30
0.0
 10
35.410488
 20
170.294875
 30
0.0
 10
35.423837
 20
170.558776
 30
0.0
 10
35.430894
 20
170.698305
 30
0.0
 11
33.971904
 21
169.278869
 31
0.0
 11
34.393536
 21
169.320373
 31
0.0
 11
34.750228
 21
169.444885
 31
0.0
 11
35.041978
 21
169.652405
 31
0.0
 11
35.258043
 21
169.934632
 31
0.0
 11
35.387681
 21
170.283265
 31
0.0
 11
35.430894
 21
170.698305
 31
0.0
  0
LWPOLYLINE
  5
11d
100
AcDbEntity
  8
0
 62
7
100
AcDbPolyline
 90
3
 70
1
 10
35.430894
 20
170.698305
 30
0.0
 10
35.430894
 20
171.133364
 30
0.0
 10
34.701401
 20
171.102602
 30
0.0
  0
SPLINE
  5
11e
100
AcDbEntity
  8
0
 62
7
100
AcDbSpline
 70
0
 71
3
 72
19
 73
15
 74
13
 40
0.000000
 40
0.000000
 40
0.000000
 40
0.000000
 40
0.527936
 40
0.955742
 40
1.294730
 40
1.580097
 40
1.859520
 40
2.169850
 40
2.413981
 40
2.629962
 40
2.837053
 40
3.051281
 40
3.285038
 40
3.551894
 40
3.551894
 40
3.551894
 40
3.551894
 10
34.701401
 20
171.102602
 30
0.0
 10
34.525523
 20
171.092637
 30
0.0
 10
34.207124
 20
171.074596
 30
0.0
 10
33.782502
 20
170.988859
 30
0.0
 10
33.453703
 20
170.856739
 30
0.0
 10
33.219468
 20
170.656494
 30
0.0
 10
33.084983
 20
170.389478
 30
0.0
 10
33.052775
 20
170.109408
 30
0.0
 10
33.076341
 20
169.851931
 30
0.0
 10
33.156751
 20
169.640618
 30
0.0
 10
33.296349
 20
169.475196
 30
0.0
 10
33.484609
 20
169.358987
 30
0.0
 10
33.715525
 20
169.289505
 30
0.0
 10
33.882759
 20
169.282568
 30
0.0
 10
33.971904
 20
169.278869
 30
0.0
 11
34.701401
 21
171.102602
 31
0.0
 11
34.175278
 21
171.058900
 31
0.0
 11
33.757064
 21
170.968812
 31
0.0
 11
33.446761
 21
170.832338
 31
0.0
 11
33.233139
 21
170.643130
 31
0.0
 11
33.104965
 21
170.394838
 31
0.0
 11
33.062240
 21
170.087464
 31
0.0
 11
33.088851
 21
169.844788
 31
0.0
 11
33.168686
 21
169.644104
 31
0.0
 11
33.301742
 21
169.485413
 31
0.0
 11
33.482649
 21
169.370667
 31
0.0
 11
33.706036
 21
169.301819
 31
0.0
 11
33.971904
 21
169.278869
 31
0.0
  0
LWPOLYLINE
  5
11f
100
AcDbEntity
  8
0
 62
7
100
AcDbPolyline
 90
2
 70
1
 10
33.971904
 20
169.278869
 30
0.0
 10
33.971904
 20
169.278869
 30
0.0
  0
SPLINE
  5
120
100
AcDbEntity
  8
0
 62
7
100
AcDbSpline
 70
0
 71
3
 72
10
 73
6
 74
4
 40
0.000000
 40
0.000000
 40
0.000000
 40
0.000000
 40
0.206627
 40
0.399324
 40
0.578976
 40
0.578976
 40
0.578976
 40
0.578976
 10
39.131094
 20
173.669011
 30
0.0
 10
39.199968
 20
173.667899
 30
0.0
 10
39.333073
 20
173.665751
 30
0.0
 10
39.525634
 20
173.648966
 30
0.0
 10
39.647824
 20
173.626915
 30
0.0
 10
39.706778
 20
173.616276
 30
0.0
 11
39.131094
 21
173.669011
 31
0.0
 11
39.337637
 21
173.663151
 31
0.0
 11
39.529531
 21
173.645573
 31
0.0
 11
39.706778
 21
173.616276
 31
0.0
  0
LWPOLYLINE
  5
121
100
AcDbEntity
  8
0
 62
7
100
AcDbPolyline
 90
2
 70
1
 10
39.706778
 20
173.616276
 30
0.0
 10
39.605703
 20
172.939518
 30
0.0
  0
SPLINE
  5
122
100
AcDbEntity
  8
0
 62
7
100
AcDbSpline
 70
0
 71
3
 72
16
 73
12
 74
10
 40
0.000000
 40
0.000000
 40
0.000000
 40
0.000000
 40
0.194877
 40
0.372027
 40
0.532351
 40
0.906933
 40
1.275830
 40
1.671980
 40
2.084760
 40
2.502412
 40
2.950594
 40
2.950594
 40
2.950594
 40
2.950594
 10
39.605703
 20
172.939518
 30
0.0
 10
39.542057
 20
172.952599
 30
0.0
 10
39.420554
 20
172.977571
 30
0.0
 10
39.244258
 20
172.999630
 30
0.0
 10
39.007153
 20
173.012169
 30
0.0
 10
38.703601
 20
172.972410
 30
0.0
 10
38.355969
 20
172.804773
 30
0.0
 10
38.062733
 20
172.536935
 30
0.0
 10
37.831515
 20
172.195472
 30
0.0
 10
37.686806
 20
171.787876
 30
0.0
 10
37.671330
 20
171.498491
 30
0.0
 10
37.663319
 20
171.348696
 30
0.0
 11
39.605703
 21
172.939518
 31
0.0
 11
39.414298
 21
172.976139
 31
0.0
 11
39.238517
 21
172.998112
 31
0.0
 11
39.078359
 21
173.005436
 31
0.0
 11
38.707509
 21
172.952701
 31
0.0
 11
38.374257
 21
172.794498
 31
0.0
 11
38.078602
 21
172.530826
 31
0.0
 11
37.847889
 21
172.188540
 31
0.0
 11
37.709461
 21
171.794496
 31
0.0
 11
37.663319
 21
171.348696
 31
0.0
  0
LWPOLYLINE
  5
123
100
AcDbEntity
  8
0
 62
7
100
AcDbPolyline
 90
7
 70
1
 10
37.663319
 20
171.348696
 30
0.0
 10
37.663319
 20
168.764709
 30
0.0
 10
36.933826
 20
168.764709
 30
0.0
 10
36.933826
 20
173.581120
 30
0.0
 10
37.535877
 20
173.581120
 30
0.0
 10
37.619373
 20
172.689029
 30
0.0
 10
37.654530
 20
172.689029
 30
0.0
  0
LWPOLYLINE
  5
124
100
AcDbEntity
  8
0
 62
7
100
AcDbPolyline
 90
2
 70
1
 10
39.131094
 20
173.669011
 30
0.0
 10
39.131094
 20
173.669011
 30
0.0
  0
SPLINE
  5
125
100
AcDbEntity
  8
0
 62
7
100
AcDbSpline
 70
0
 71
3
 72
13
 73
9
 74
7
 40
0.000000
 40
0.000000
 40
0.000000
 40
0.000000
 40
0.346828
 40
0.670535
 40
0.978845
 40
1.275127
 40
1.564726
 40
1.859548
 40
1.859548
 40
1.859548
 40
1.859548
 10
37.654530
 20
172.689029
 30
0.0
 10
37.715285
 20
172.787608
 30
0.0
 10
37.832746
 20
172.978194
 30
0.0
 10
38.051427
 20
173.222657
 30
0.0
 10
38.291930
 20
173.419652
 30
0.0
 10
38.554764
 20
173.563473
 30
0.0
 10
38.837445
 20
173.653294
 30
0.0
 10
39.032629
 20
173.663741
 30
0.0
 10
39.131094
 20
173.669011
 30
0.0
 11
37.654530
 21
172.689029
 31
0.0
 11
37.845449
 21
172.978579
 31
0.0
 11
38.060781
 21
173.220279
 31
0.0
 11
38.300526
 21
173.414128
 31
0.0
 11
38.560780
 21
173.555730
 31
0.0
 11
38.837635
 21
173.640691
 31
0.0
 11
39.131094
 21
173.669011
 31
0.0
  0
SPLINE
  5
126
100
AcDbEntity
  8
0
 62
7
100
AcDbSpline
 70
0
 71
3
 72
10
 73
6
 74
4
 40
0.000000
 40
0.000000
 40
0.000000
 40
0.000000
 40
0.498895
 40
0.982414
 40
1.451388
 40
1.451388
 40
1.451388
 40
1.451388
 10
44.439688
 20
171.032294
 30
0.0
 10
44.493680
 20
170.874992
 30
0.0
 10
44.599999
 20
170.565236
 30
0.0
 10
44.735477
 20
170.100506
 30
0.0
 10
44.808189
 20
169.791410
 30
0.0
 10
44.843990
 20
169.639221
 30
0.0
 11
44.439688
 21
171.032294
 31
0.0
 11
44.597893
 21
170.559147
 31
0.0
 11
44.732660
 21
170.094790
 31
0.0
 11
44.843990
 21
169.639221
 31
0.0
  0
LWPOLYLINE
  5
127
100
AcDbEntity
  8
0
 62
7
100
AcDbPolyline
 90
7
 70
1
 10
46.724852
 20
175.189520
 30
0.0
 10
47.529047
 20
175.189525
 30
0.0
 10
45.213127
 20
168.764713
 30
0.0
 10
44.474845
 20
168.764713
 30
0.0
 10
42.172108
 20
175.189525
 30
0.0
 10
42.963124
 20
175.189525
 30
0.0
 10
44.439688
 20
171.032294
 30
0.0
  0
SPLINE
  5
128
100
AcDbEntity
  8
0
 62
7
100
AcDbSpline
 70
0
 71
3
 72
10
 73
6
 74
4
 40
0.000000
 40
0.000000
 40
0.000000
 40
0.000000
 40
0.488156
 40
0.980931
 40
1.479208
 40
1.479208
 40
1.479208
 40
1.479208
 10
44.843990
 20
169.639221
 30
0.0
 10
44.881370
 20
169.797606
 30
0.0
 10
44.956485
 20
170.115873
 30
0.0
 10
45.094536
 20
170.589529
 30
0.0
 10
45.202696
 20
170.901703
 30
0.0
 10
45.257077
 20
171.058656
 30
0.0
 11
44.843990
 21
169.639221
 31
0.0
 11
44.960201
 21
170.113343
 31
0.0
 11
45.097896
 21
170.586489
 31
0.0
 11
45.257077
 21
171.058656
 31
0.0
  0
LWPOLYLINE
  5
129
100
AcDbEntity
  8
0
 62
7
100
AcDbPolyline
 90
2
 70
1
 10
45.257077
 20
171.058656
 30
0.0
 10
46.724852
 20
175.189520
 30
0.0
  0
LWPOLYLINE
  5
12a
100
AcDbEntity
  8
0
 62
7
100
AcDbPolyline
 90
2
 70
1
 10
48.197021
 20
169.230530
 30
0.0
 10
48.197021
 20
169.230530
 30
0.0
  0
LWPOLYLINE
  5
12b
100
AcDbEntity
  8
0
 62
7
100
AcDbPolyline
 90
93
 70
1
 10
274.313005
 20
228.663893
 30
0.0
 10
274.313005
 20
222.663888
 30
0.0
 10
291.813020
 20
222.663888
 30
0.0
 10
291.813020
 20
228.663893
 30
0.0
 10
303.813029
 20
228.663893
 30
0.0
 10
303.813029
 20
222.663888
 30
0.0
 10
315.813039
 20
222.663888
 30
0.0
 10
315.813039
 20
228.663893
 30
0.0
 10
327.813049
 20
228.663893
 30
0.0
 10
327.813049
 20
222.663888
 30
0.0
 10
339.813059
 20
222.663888
 30
0.0
 10
339.813059
 20
228.663893
 30
0.0
 10
351.813069
 20
228.663893
 30
0.0
 10
351.813069
 20
222.663888
 30
0.0
 10
363.813079
 20
222.663888
 30
0.0
 10
363.813079
 20
228.663893
 30
0.0
 10
375.813089
 20
228.663893
 30
0.0
 10
375.813089
 20
222.663888
 30
0.0
 10
387.813098
 20
222.663888
 30
0.0
 10
387.813098
 20
228.663893
 30
0.0
 10
399.813108
 20
228.663893
 30
0.0
 10
399.813108
 20
222.663888
 30
0.0
 10
411.813118
 20
222.663888
 30
0.0
 10
411.813118
 20
228.663893
 30
0.0
 10
423.813128
 20
228.663893
 30
0.0
 10
423.813128
 20
222.663888
 30
0.0
 10
435.813138
 20
222.663888
 30
0.0
 10
435.813138
 20
228.663893
 30
0.0
 10
447.813148
 20
228.663893
 30
0.0
 10
447.813148
 20
222.663888
 30
0.0
 10
459.813158
 20
222.663888
 30
0.0
 10
459.813158
 20
228.663893
 30
0.0
 10
471.813168
 20
228.663893
 30
0.0
 10
471.813168
 20
222.663888
 30
0.0
 10
489.313180
 20
222.663888
 30
0.0
 10
489.313180
 20
228.663893
 30
0.0
 10
506.813196
 20
228.663893
 30
0.0
 10
506.813196
 20
214.663882
 30
0.0
 10
500.813191
 20
214.663882
 30
0.0
 10
500.813191
 20
200.663870
 30
0.0
 10
506.813196
 20
200.663870
 30
0.0
 10
506.813196
 20
186.663859
 30
0.0
 10
500.813191
 20
186.663859
 30
0.0
 10
500.813191
 20
172.663847
 30
0.0
 10
506.813196
 20
172.663847
 30
0.0
 10
506.813196
 20
158.663836
 30
0.0
 10
489.313180
 20
158.663836
 30
0.0
 10
489.313180
 20
164.663841
 30
0.0
 10
471.813168
 20
164.663841
 30
0.0
 10
471.813168
 20
158.663836
 30
0.0
 10
459.813158
 20
158.663836
 30
0.0
 10
459.813158
 20
164.663841
 30
0.0
 10
447.813148
 20
164.663841
 30
0.0
 10
447.813148
 20
158.663836
 30
0.0
 10
435.813138
 20
158.663836
 30
0.0
 10
435.813138
 20
164.663841
 30
0.0
 10
423.813128
 20
164.663841
 30
0.0
 10
423.813128
 20
158.663836
 30
0.0
 10
411.813118
 20
158.663836
 30
0.0
 10
411.813118
 20
164.663841
 30
0.0
 10
399.813108
 20
164.663841
 30
0.0
 10
399.813108
 20
158.663836
 30
0.0
 10
387.813098
 20
158.663836
 30
0.0
 10
387.813098
 20
164.663841
 30
0.0
 10
375.813089
 20
164.663841
 30
0.0
 10
375.813089
 20
158.663836
 30
0.0
 10
363.813079
 20
158.663836
 30
0.0
 10
363.813079
 20
164.663841
 30
0.0
 10
351.813069
 20
164.663841
 30
0.0
 10
351.813069
 20
158.663836
 30
0.0
 10
339.813059
 20
158.663836
 30
0.0
 10
339.813059
 20
164.663841
 30
0.0
 10
327.813049
 20
164.663841
 30
0.0
 10
327.813049
 20
158.663836
 30
0.0
 10
315.813039
 20
158.663836
 30
0.0
 10
315.813039
 20
164.663841
 30
0.0
 10
303.813029
 20
164.663841
 30
0.0
 10
303.813029
 20
158.663836
 30
0.0
 10
291.813020
 20
158.663836
 30
0.0
 10
291.813020
 20
164.663841
 30
0.0
 10
274.313005
 20
164.663841
 30
0.0
 10
274.313005
 20
158.663836
 30
0.0
 10
256.812991
 20
158.663836
 30
0.0
 10
256.812991
 20
172.663847
 30
0.0
 10
262.812996
 20
172.663847
 30
0.0
 10
262.812996
 20
186.663859
 30
0.0
 10
256.812991
 20
186.663859
 30
0.0
 10
256.812991
 20
200.663870
 30
0.0
 10
262.812996
 20
200.663870
 30
0.0
 10
262.812996
 20
214.663882
 30
0.0
 10
256.812991
 20
214.663882
 30
0.0
 10
256.812991
 20
228.663893
 30
0.0
 10
274.313005
 20
228.663893
 30
0.0
  0
LWPOLYLINE
  5
12c
100
AcDbEntity
  8
0
 62
7
100
AcDbPolyline
 90
5
 70
1
 10
281.813011
 20
210.243879
 30
0.0
 10
301.813028
 20
210.243879
 30
0.0
 10
301.813028
 20
185.243858
 30
0.0
 10
281.813011
 20
185.243858
 30
0.0
 10
281.813011
 20
210.243879
 30
0.0
  0
LWPOLYLINE
  5
12d
100
AcDbEntity
  8
0
 62
7
100
AcDbPolyline
 90
61
 70
1
 10
526.089884
 20
228.663893
 30
0.0
 10
526.089884
 20
222.663888
 30
0.0
 10
542.589898
 20
222.663888
 30
0.0
 10
542.589898
 20
228.663893
 30
0.0
 10
554.589908
 20
228.663893
 30
0.0
 10
554.589908
 20
222.663888
 30
0.0
 10
566.589918
 20
222.663888
 30
0.0
 10
566.589918
 20
228.663893
 30
0.0
 10
578.589927
 20
228.663893
 30
0.0
 10
578.589927
 20
222.663888
 30
0.0
 10
590.589937
 20
222.663888
 30
0.0
 10
590.589937
 20
228.663893
 30
0.0
 10
602.589947
 20
228.663893
 30
0.0
 10
602.589947
 20
222.663888
 30
0.0
 10
614.589957
 20
222.663888
 30
0.0
 10
614.589957
 20
228.663893
 30
0.0
 10
626.589967
 20
228.663893
 30
0.0
 10
626.589967
 20
222.663888
 30
0.0
 10
643.089979
 20
222.663888
 30
0.0
 10
643.089979
 20
228.663893
 30
0.0
 10
653.589989
 20
228.663893
 30
0.0
 10
653.589989
 20
214.663882
 30
0.0
 10
659.589994
 20
214.663882
 30
0.0
 10
659.589994
 20
200.663870
 30
0.0
 10
653.589989
 20
200.663870
 30
0.0
 10
653.589989
 20
186.663859
 30
0.0
 10
659.589994
 20
186.663859
 30
0.0
 10
659.589994
 20
172.663847
 30
0.0
 10
653.589989
 20
172.663847
 30
0.0
 10
653.589989
 20
158.663836
 30
0.0
 10
643.089979
 20
158.663836
 30
0.0
 10
643.089979
 20
164.663841
 30
0.0
 10
626.589967
 20
164.663841
 30
0.0
 10
626.589967
 20
158.663836
 30
0.0
 10
614.589957
 20
158.663836
 30
0.0
 10
614.589957
 20
164.663841
 30
0.0
 10
602.589947
 20
164.663841
 30
0.0
 10
602.589947
 20
158.663836
 30
0.0
 10
590.589937
 20
158.663836
 30
0.0
 10
590.589937
 20
164.663841
 30
0.0
 10
578.589927
 20
164.663841
 30
0.0
 10
578.589927
 20
158.663836
 30
0.0
 10
566.589918
 20
158.663836
 30
0.0
 10
566.589918
 20
164.663841
 30
0.0
 10
554.589908
 20
164.663841
 30
0.0
 10
554.589908
 20
158.663836
 30
0.0
 10
542.589898
 20
158.663836
 30
0.0
 10
542.589898
 20
164.663841
 30
0.0
 10
526.089884
 20
164.663841
 30
0.0
 10
526.089884
 20
158.663836
 30
0.0
 10
515.589876
 20
158.663836
 30
0.0
 10
515.589876
 20
172.663847
 30
0.0
 10
509.589871
 20
172.663847
 30
0.0
 10
509.589871
 20
186.663859
 30
0.0
 10
515.589876
 20
186.663859
 30
0.0
 10
515.589876
 20
200.663870
 30
0.0
 10
509.589871
 20
200.663870
 30
0.0
 10
509.589871
 20
214.663882
 30
0.0
 10
515.589876
 20
214.663882
 30
0.0
 10
515.589876
 20
228.663893
 30
0.0
 10
526.089884
 20
228.663893
 30
0.0
  0
LWPOLYLINE
  5
12e
100
AcDbEntity
  8
0
 62
7
100
AcDbPolyline
 90
61
 70
1
 10
525.627096
 20
150.333800
 30
0.0
 10
525.627096
 20
144.333795
 30
0.0
 10
542.127110
 20
144.333795
 30
0.0
 10
542.127110
 20
150.333800
 30
0.0
 10
554.127120
 20
150.333800
 30
0.0
 10
554.127120
 20
144.333795
 30
0.0
 10
566.127130
 20
144.333795
 30
0.0
 10
566.127130
 20
150.333800
 30
0.0
 10
578.127139
 20
150.333800
 30
0.0
 10
578.127139
 20
144.333795
 30
0.0
 10
590.127149
 20
144.333795
 30
0.0
 10
590.127149
 20
150.333800
 30
0.0
 10
602.127159
 20
150.333800
 30
0.0
 10
602.127159
 20
144.333795
 30
0.0
 10
614.127169
 20
144.333795
 30
0.0
 10
614.127169
 20
150.333800
 30
0.0
 10
626.127179
 20
150.333800
 30
0.0
 10
626.127179
 20
144.333795
 30
0.0
 10
642.627191
 20
144.333795
 30
0.0
 10
642.627191
 20
150.333800
 30
0.0
 10
653.127201
 20
150.333800
 30
0.0
 10
653.127201
 20
136.333789
 30
0.0
 10
659.127206
 20
136.333789
 30
0.0
 10
659.127206
 20
122.333777
 30
0.0
 10
653.127201
 20
122.333777
 30
0.0
 10
653.127201
 20
108.333766
 30
0.0
 10
659.127206
 20
108.333766
 30
0.0
 10
659.127206
 20
94.333754
 30
0.0
 10
653.127201
 20
94.333754
 30
0.0
 10
653.127201
 20
80.333742
 30
0.0
 10
642.627191
 20
80.333742
 30
0.0
 10
642.627191
 20
86.333747
 30
0.0
 10
626.127179
 20
86.333747
 30
0.0
 10
626.127179
 20
80.333742
 30
0.0
 10
614.127169
 20
80.333742
 30
0.0
 10
614.127169
 20
86.333747
 30
0.0
 10
602.127159
 20
86.333747
 30
0.0
 10
602.127159
 20
80.333742
 30
0.0
 10
590.127149
 20
80.333742
 30
0.0
 10
590.127149
 20
86.333747
 30
0.0
 10
578.127139
 20
86.333747
 30
0.0
 10
578.127139
 20
80.333742
 30
0.0
 10
566.127130
 20
80.333742
 30
0.0
 10
566.127130
 20
86.333747
 30
0.0
 10
554.127120
 20
86.333747
 30
0.0
 10
554.127120
 20
80.333742
 30
0.0
 10
542.127110
 20
80.333742
 30
0.0
 10
542.127110
 20
86.333747
 30
0.0
 10
525.627096
 20
86.333747
 30
0.0
 10
525.627096
 20
80.333742
 30
0.0
 10
515.127088
 20
80.333742
 30
0.0
 10
515.127088
 20
94.333754
 30
0.0
 10
509.127083
 20
94.333754
 30
0.0
 10
509.127083
 20
108.333766
 30
0.0
 10
515.127088
 20
108.333766
 30
0.0
 10
515.127088
 20
122.333777
 30
0.0
 10
509.127083
 20
122.333777
 30
0.0
 10
509.127083
 20
136.333789
 30
0.0
 10
515.127088
 20
136.333789
 30
0.0
 10
515.127088
 20
150.333800
 30
0.0
 10
525.627096
 20
150.333800
 30
0.0
  0
LWPOLYLINE
  5
12f
100
AcDbEntity
  8
0
 62
7
100
AcDbPolyline
 90
117
 70
1
 10
20.610561
 20
148.498814
 30
0.0
 10
20.610561
 20
154.498819
 30
0.0
 10
38.110575
 20
154.498819
 30
0.0
 10
38.110575
 20
148.498814
 30
0.0
 10
50.110585
 20
148.498814
 30
0.0
 10
50.110585
 20
154.498819
 30
0.0
 10
62.110595
 20
154.498819
 30
0.0
 10
62.110595
 20
148.498814
 30
0.0
 10
74.110605
 20
148.498814
 30
0.0
 10
74.110605
 20
154.498819
 30
0.0
 10
86.110615
 20
154.498819
 30
0.0
 10
86.110615
 20
148.498814
 30
0.0
 10
98.110625
 20
148.498814
 30
0.0
 10
98.110625
 20
154.498819
 30
0.0
 10
110.110635
 20
154.498819
 30
0.0
 10
110.110635
 20
148.498814
 30
0.0
 10
122.110644
 20
148.498814
 30
0.0
 10
122.110644
 20
154.498819
 30
0.0
 10
134.110654
 20
154.498819
 30
0.0
 10
134.110654
 20
148.498814
 30
0.0
 10
146.110664
 20
148.498814
 30
0.0
 10
146.110664
 20
154.498819
 30
0.0
 10
158.110674
 20
154.498819
 30
0.0
 10
158.110674
 20
148.498814
 30
0.0
 10
170.110684
 20
148.498814
 30
0.0
 10
170.110684
 20
154.498819
 30
0.0
 10
182.110694
 20
154.498819
 30
0.0
 10
182.110694
 20
148.498814
 30
0.0
 10
194.110704
 20
148.498814
 30
0.0
 10
194.110704
 20
154.498819
 30
0.0
 10
206.110714
 20
154.498819
 30
0.0
 10
206.110714
 20
148.498814
 30
0.0
 10
218.110723
 20
148.498814
 30
0.0
 10
218.110723
 20
154.498819
 30
0.0
 10
235.610736
 20
154.498819
 30
0.0
 10
235.610736
 20
148.498814
 30
0.0
 10
247.110747
 20
148.498814
 30
0.0
 10
247.110747
 20
137.998805
 30
0.0
 10
253.110752
 20
137.998805
 30
0.0
 10
253.110752
 20
121.498792
 30
0.0
 10
247.110747
 20
121.498792
 30
0.0
 10
247.110747
 20
109.498782
 30
0.0
 10
253.110752
 20
109.498782
 30
0.0
 10
253.110752
 20
97.498772
 30
0.0
 10
247.110747
 20
97.498772
 30
0.0
 10
247.110747
 20
85.498762
 30
0.0
 10
253.110752
 20
85.498762
 30
0.0
 10
253.110752
 20
73.498752
 30
0.0
 10
247.110747
 20
73.498752
 30
0.0
 10
247.110747
 20
61.498742
 30
0.0
 10
253.110752
 20
61.498742
 30
0.0
 10
253.110752
 20
49.498732
 30
0.0
 10
247.110747
 20
49.498732
 30
0.0
 10
247.110747
 20
37.498722
 30
0.0
 10
253.110752
 20
37.498722
 30
0.0
 10
253.110752
 20
20.998710
 30
0.0
 10
247.110747
 20
20.998710
 30
0.0
 10
247.110747
 20
10.498700
 30
0.0
 10
235.610736
 20
10.498700
 30
0.0
 10
235.610736
 20
4.498695
 30
0.0
 10
218.110723
 20
4.498695
 30
0.0
 10
218.110723
 20
10.498700
 30
0.0
 10
206.110714
 20
10.498700
 30
0.0
 10
206.110714
 20
4.498695
 30
0.0
 10
194.110704
 20
4.498695
 30
0.0
 10
194.110704
 20
10.498700
 30
0.0
 10
182.110694
 20
10.498700
 30
0.0
 10
182.110694
 20
4.498695
 30
0.0
 10
170.110684
 20
4.498695
 30
0.0
 10
170.110684
 20
10.498700
 30
0.0
 10
158.110674
 20
10.498700
 30
0.0
 10
158.110674
 20
4.498695
 30
0.0
 10
146.110664
 20
4.498695
 30
0.0
 10
146.110664
 20
10.498700
 30
0.0
 10
134.110654
 20
10.498700
 30
0.0
 10
134.110654
 20
4.498695
 30
0.0
 10
122.110644
 20
4.498695
 30
0.0
 10
122.110644
 20
10.498700
 30
0.0
 10
110.110635
 20
10.498700
 30
0.0
 10
110.110635
 20
4.498695
 30
0.0
 10
98.110625
 20
4.498695
 30
0.0
 10
98.110625
 20
10.498700
 30
0.0
 10
86.110615
 20
10.498700
 30
0.0
 10
86.110615
 20
4.498695
 30
0.0
 10
74.110605
 20
4.498695
 30
0.0
 10
74.110605
 20
10.498700
 30
0.0
 10
62.110595
 20
10.498700
 30
0.0
 10
62.110595
 20
4.498695
 30
0.0
 10
50.110585
 20
4.498695
 30
0.0
 10
50.110585
 20
10.498700
 30
0.0
 10
38.110575
 20
10.498700
 30
0.0
 10
38.110575
 20
4.498695
 30
0.0
 10
20.610561
 20
4.498695
 30
0.0
 10
20.610561
 20
10.498700
 30
0.0
 10
9.110552
 20
10.498700
 30
0.0
 10
9.110552
 20
20.998710
 30
0.0
 10
3.110547
 20
20.998710
 30
0.0
 10
3.110547
 20
37.498722
 30
0.0
 10
9.110552
 20
37.498722
 30
0.0
 10
9.110552
 20
49.498732
 30
0.0
 10
3.110547
 20
49.498732
 30
0.0
 10
3.110547
 20
61.498742
 30
0.0
 10
9.110552
 20
61.498742
 30
0.0
 10
9.110552
 20
73.498752
 30
0.0
 10
3.110547
 20
73.498752
 30
0.0
 10
3.110547
 20
85.498762
 30
0.0
 10
9.110552
 20
85.498762
 30
0.0
 10
9.110552
 20
97.498772
 30
0.0
 10
3.110547
 20
97.498772
 30
0.0
 10
3.110547
 20
109.498782
 30
0.0
 10
9.110552
 20
109.498782
 30
0.0
 10
9.110552
 20
121.498792
 30
0.0
 10
3.110547
 20
121.498792
 30
0.0
 10
3.110547
 20
137.998805
 30
0.0
 10
9.110552
 20
137.998805
 30
0.0
 10
9.110552
 20
148.498814
 30
0.0
 10
20.610561
 20
148.498814
 30
0.0
  0
SPLINE
  5
130
100
AcDbEntity
  8
0
 62
7
100
AcDbSpline
 70
0
 71
3
 72
31
 73
27
 74
25
 40
0.000000
 40
0.000000
 40
0.000000
 40
0.000000
 40
0.181033
 40
0.336280
 40
0.474916
 40
0.607424
 40
0.745202
 40
0.900174
 40
1.058544
 40
1.200420
 40
1.337120
 40
1.478441
 40
1.634558
 40
1.815675
 40
1.992192
 40
2.146445
 40
2.288655
 40
2.426683
 40
2.568137
 40
2.724349
 40
2.866055
 40
2.998156
 40
3.129673
 40
3.268406
 40
3.427761
 40
3.619622
 40
3.619622
 40
3.619622
 40
3.619622
 10
48.197021
 20
169.230530
 30
0.0
 10
48.199373
 20
169.290989
 30
0.0
 10
48.203741
 20
169.403295
 30
0.0
 10
48.248101
 20
169.557234
 30
0.0
 10
48.323993
 20
169.679901
 30
0.0
 10
48.431195
 20
169.768160
 30
0.0
 10
48.565789
 20
169.819205
 30
0.0
 10
48.716718
 20
169.832970
 30
0.0
 10
48.868967
 20
169.819038
 30
0.0
 10
49.007576
 20
169.768020
 30
0.0
 10
49.119834
 20
169.680542
 30
0.0
 10
49.201557
 20
169.558226
 30
0.0
 10
49.247857
 20
169.403670
 30
0.0
 10
49.260579
 20
169.232072
 30
0.0
 10
49.247648
 20
169.061039
 30
0.0
 10
49.200077
 20
168.908754
 30
0.0
 10
49.117321
 20
168.787192
 30
0.0
 10
49.005213
 20
168.698745
 30
0.0
 10
48.867406
 20
168.646757
 30
0.0
 10
48.720436
 20
168.632497
 30
0.0
 10
48.576554
 20
168.646054
 30
0.0
 10
48.448490
 20
168.693601
 30
0.0
 10
48.337299
 20
168.771928
 30
0.0
 10
48.251767
 20
168.890276
 30
0.0
 10
48.204137
 20
169.049234
 30
0.0
 10
48.199535
 20
169.166481
 30
0.0
 10
48.197021
 20
169.230530
 30
0.0
 11
48.197021
 21
169.230530
 31
0.0
 11
48.211913
 21
169.410949
 31
0.0
 11
48.256589
 21
169.559629
 31
0.0
 11
48.331050
 21
169.676571
 31
0.0
 11
48.433344
 21
169.760799
 31
0.0
 11
48.561519
 21
169.811336
 31
0.0
 11
48.715572
 21
169.828182
 31
0.0
 11
48.873044
 21
169.811336
 31
0.0
 11
49.005614
 21
169.760799
 31
0.0
 11
49.113282
 21
169.676571
 31
0.0
 11
49.192628
 21
169.559627
 31
0.0
 11
49.240235
 21
169.410946
 31
0.0
 11
49.256104
 21
169.230525
 31
0.0
 11
49.239991
 21
169.054745
 31
0.0
 11
49.191651
 21
168.908262
 31
0.0
 11
49.111084
 21
168.791076
 31
0.0
 11
49.002686
 21
168.705627
 31
0.0
 11
48.870850
 21
168.654357
 31
0.0
 11
48.715576
 21
168.637267
 31
0.0
 11
48.574707
 21
168.652648
 31
0.0
 11
48.450927
 21
168.698791
 31
0.0
 11
48.344238
 21
168.775695
 31
0.0
 11
48.262451
 21
168.887756
 31
0.0
 11
48.213379
 21
169.039367
 31
0.0
 11
48.197021
 21
169.230530
 31
0.0
  0
LWPOLYLINE
  5
131
100
AcDbEntity
  8
0
 62
7
100
AcDbPolyline
 90
117
 70
1
 10
272.924667
 20
145.722134
 30
0.0
 10
272.924667
 20
151.722139
 30
0.0
 10
290.424681
 20
151.722139
 30
0.0
 10
290.424681
 20
145.722134
 30
0.0
 10
302.424691
 20
145.722134
 30
0.0
 10
302.424691
 20
151.722139
 30
0.0
 10
314.424701
 20
151.722139
 30
0.0
 10
314.424701
 20
145.722134
 30
0.0
 10
326.424711
 20
145.722134
 30
0.0
 10
326.424711
 20
151.722139
 30
0.0
 10
338.424720
 20
151.722139
 30
0.0
 10
338.424720
 20
145.722134
 30
0.0
 10
350.424730
 20
145.722134
 30
0.0
 10
350.424730
 20
151.722139
 30
0.0
 10
362.424740
 20
151.722139
 30
0.0
 10
362.424740
 20
145.722134
 30
0.0
 10
374.424750
 20
145.722134
 30
0.0
 10
374.424750
 20
151.722139
 30
0.0
 10
386.424760
 20
151.722139
 30
0.0
 10
386.424760
 20
145.722134
 30
0.0
 10
398.424770
 20
145.722134
 30
0.0
 10
398.424770
 20
151.722139
 30
0.0
 10
410.424780
 20
151.722139
 30
0.0
 10
410.424780
 20
145.722134
 30
0.0
 10
422.424789
 20
145.722134
 30
0.0
 10
422.424789
 20
151.722139
 30
0.0
 10
434.424799
 20
151.722139
 30
0.0
 10
434.424799
 20
145.722134
 30
0.0
 10
446.424809
 20
145.722134
 30
0.0
 10
446.424809
 20
151.722139
 30
0.0
 10
458.424819
 20
151.722139
 30
0.0
 10
458.424819
 20
145.722134
 30
0.0
 10
470.424829
 20
145.722134
 30
0.0
 10
470.424829
 20
151.722139
 30
0.0
 10
487.924842
 20
151.722139
 30
0.0
 10
487.924842
 20
145.722134
 30
0.0
 10
499.424853
 20
145.722134
 30
0.0
 10
499.424853
 20
135.222125
 30
0.0
 10
505.424858
 20
135.222125
 30
0.0
 10
505.424858
 20
118.722112
 30
0.0
 10
499.424853
 20
118.722112
 30
0.0
 10
499.424853
 20
106.722102
 30
0.0
 10
505.424858
 20
106.722102
 30
0.0
 10
505.424858
 20
94.722092
 30
0.0
 10
499.424853
 20
94.722092
 30
0.0
 10
499.424853
 20
82.722082
 30
0.0
 10
505.424858
 20
82.722082
 30
0.0
 10
505.424858
 20
70.722072
 30
0.0
 10
499.424853
 20
70.722072
 30
0.0
 10
499.424853
 20
58.722062
 30
0.0
 10
505.424858
 20
58.722062
 30
0.0
 10
505.424858
 20
46.722052
 30
0.0
 10
499.424853
 20
46.722052
 30
0.0
 10
499.424853
 20
34.722042
 30
0.0
 10
505.424858
 20
34.722042
 30
0.0
 10
505.424858
 20
18.222030
 30
0.0
 10
499.424853
 20
18.222030
 30
0.0
 10
499.424853
 20
7.722020
 30
0.0
 10
487.924842
 20
7.722020
 30
0.0
 10
487.924842
 20
1.722015
 30
0.0
 10
470.424829
 20
1.722015
 30
0.0
 10
470.424829
 20
7.722020
 30
0.0
 10
458.424819
 20
7.722020
 30
0.0
 10
458.424819
 20
1.722015
 30
0.0
 10
446.424809
 20
1.722015
 30
0.0
 10
446.424809
 20
7.722020
 30
0.0
 10
434.424799
 20
7.722020
 30
0.0
 10
434.424799
 20
1.722015
 30
0.0
 10
422.424789
 20
1.722015
 30
0.0
 10
422.424789
 20
7.722020
 30
0.0
 10
410.424780
 20
7.722020
 30
0.0
 10
410.424780
 20
1.722015
 30
0.0
 10
398.424770
 20
1.722015
 30
0.0
 10
398.424770
 20
7.722020
 30
0.0
 10
386.424760
 20
7.722020
 30
0.0
 10
386.424760
 20
1.722015
 30
0.0
 10
374.424750
 20
1.722015
 30
0.0
 10
374.424750
 20
7.722020
 30
0.0
 10
362.424740
 20
7.722020
 30
0.0
 10
362.424740
 20
1.722015
 30
0.0
 10
350.424730
 20
1.722015
 30
0.0
 10
350.424730
 20
7.722020
 30
0.0
 10
338.424720
 20
7.722020
 30
0.0
 10
338.424720
 20
1.722015
 30
0.0
 10
326.424711
 20
1.722015
 30
0.0
 10
326.424711
 20
7.722020
 30
0.0
 10
314.424701
 20
7.722020
 30
0.0
 10
314.424701
 20
1.722015
 30
0.0
 10
302.424691
 20
1.722015
 30
0.0
 10
302.424691
 20
7.722020
 30
0.0
 10
290.424681
 20
7.722020
 30
0.0
 10
290.424681
 20
1.722015
 30
0.0
 10
272.924667
 20
1.722015
 30
0.0
 10
272.924667
 20
7.722020
 30
0.0
 10
261.424657
 20
7.722020
 30
0.0
 10
261.424657
 20
18.222030
 30
0.0
 10
255.424652
 20
18.222030
 30
0.0
 10
255.424652
 20
34.722042
 30
0.0
 10
261.424657
 20
34.722042
 30
0.0
 10
261.424657
 20
46.722052
 30
0.0
 10
255.424652
 20
46.722052
 30
0.0
 10
255.424652
 20
58.722062
 30
0.0
 10
261.424657
 20
58.722062
 30
0.0
 10
261.424657
 20
70.722072
 30
0.0
 10
255.424652
 20
70.722072
 30
0.0
 10
255.424652
 20
82.722082
 30
0.0
 10
261.424657
 20
82.722082
 30
0.0
 10
261.424657
 20
94.722092
 30
0.0
 10
255.424652
 20
94.722092
 30
0.0
 10
255.424652
 20
106.722102
 30
0.0
 10
261.424657
 20
106.722102
 30
0.0
 10
261.424657
 20
118.722112
 30
0.0
 10
255.424652
 20
118.722112
 30
0.0
 10
255.424652
 20
135.222125
 30
0.0
 10
261.424657
 20
135.222125
 30
0.0
 10
261.424657
 20
145.722134
 30
0.0
 10
272.924667
 20
145.722134
 30
0.0
  0
ENDSEC
  0
SECTION
  2
OBJECTS
  0
DICTIONARY
  5
C
330
0
100
AcDbDictionary
  3
ACAD_GROUP
350
D
  3
ACAD_MLINESTYLE
350
17
  0
DICTIONARY
  5
D
330
C
100
AcDbDictionary
  0
DICTIONARY
  5
1A
330
C
100
AcDbDictionary
  0
DICTIONARY
  5
17
330
C
100
AcDbDictionary
  3
STANDARD
350
18
  0
DICTIONARY
  5
19
330
C
100
AcDbDictionary
  0
ENDSEC
  0
EOF
